<?xml version="1.0" encoding="utf-8"?>
<!-- Generator: Adobe Illustrator 21.0.2, SVG Export Plug-In . SVG Version: 6.00 Build 0)  -->
<svg version="1.1" id="Capa_1" xmlns="http://www.w3.org/2000/svg" xmlns:xlink="http://www.w3.org/1999/xlink" x="0px" y="0px"
	 viewBox="0 0 399.6 366.1" style="enable-background:new 0 0 399.6 366.1;" xml:space="preserve">
<style type="text/css">
	.st0{fill:#DD1D4B;}
	.st1{fill:#FFFFFF;}
</style>
<polygon class="st0" points="283.7,181 283.7,215.4 249.3,215.4 249.3,249.8 214.9,249.8 214.9,284.2 180.9,284.2 180.9,249.8 
	146.5,249.8 146.5,215.4 112.1,215.4 112.1,181 77.6,181 77.6,112.5 112.1,112.5 112.1,78.2 180.6,78.2 180.6,112.5 215.3,112.5 
	215.3,78.2 283.7,78.2 283.7,112.5 318.1,112.5 318.1,181 "/>
<g>
	
		<image style="overflow:visible;opacity:0.55;" width="1467" height="1324" xlink:href="6D8C09FD813550CF.png"  transform="matrix(0.24 0 0 0.24 22.349 32.44)">
	</image>
	<g>
		<g>
			<rect x="77.9" y="78" class="st1" width="34.4" height="34.4"/>
			<polygon class="st1" points="181.1,78 181.1,43.6 146.7,43.6 112.3,43.6 112.3,78 146.7,78 			"/>
			<polygon class="st1" points="77.9,146.8 77.9,112.4 43.5,112.4 43.5,146.8 43.5,181.2 77.9,181.2 			"/>
			<rect x="77.9" y="181.2" class="st1" width="34.4" height="34.4"/>
			<rect x="112.3" y="215.6" class="st1" width="34.4" height="34.4"/>
			<rect x="146.7" y="250" class="st1" width="34.4" height="34.4"/>
			<polygon class="st1" points="215.5,318.7 215.5,284.3 249.9,284.3 249.9,250 215.5,250 215.5,284.3 181.1,284.3 181.1,318.7 			
				"/>
			<polygon class="st1" points="215.5,112.4 215.5,78 249.9,78 284.2,78 284.2,43.6 249.9,43.6 215.5,43.6 215.5,78 181.1,78 
				181.1,112.4 			"/>
			<rect x="284.2" y="78" class="st1" width="34.4" height="34.4"/>
			<polygon class="st1" points="318.7,146.8 318.7,181.2 353.1,181.2 353.1,146.8 353.1,112.4 318.7,112.4 			"/>
			<rect x="284.2" y="181.2" class="st1" width="34.4" height="34.4"/>
			<rect x="249.9" y="215.6" class="st1" width="34.4" height="34.4"/>
		</g>
	</g>
</g>
</svg>
